HIERARCHY
ROOT Hips
{
	OFFSET 0.000000 0.000000 0.000000
	CHANNELS 6 Xposition Yposition Zposition Zrotation Yrotation Xrotation 
	JOINT LHipJoint
	{
		OFFSET 0.000000 0.000000 0.000000
		CHANNELS 3 Zrotation Yrotation Xrotation
		JOINT LeftUpLeg
		{
			OFFSET 1.363060 -1.794630 0.839290
			CHANNELS 3 Zrotation Yrotation Xrotation
			JOINT LeftLeg
			{
				OFFSET 2.448110 -6.726130 0.000000
				CHANNELS 3 Zrotation Yrotation Xrotation
				JOINT LeftFoot
				{
					OFFSET 2.562200 -7.039590 0.000000
					CHANNELS 3 Zrotation Yrotation Xrotation
					JOINT LeftToeBase
					{
						OFFSET 0.157640 -0.433110 2.322550
						CHANNELS 3 Zrotation Yrotation Xrotation
						End Site
						{
							OFFSET 0.000000 0.000000 0.000000
						}
					}
				}
			}
		}
	}
	JOINT RHipJoint
	{
		OFFSET 0.000000 0.000000 0.000000
		CHANNELS 3 Zrotation Yrotation Xrotation
		JOINT RightUpLeg
		{
			OFFSET -1.305520 -1.794630 0.839290
			CHANNELS 3 Zrotation Yrotation Xrotation
			JOINT RightLeg
			{
				OFFSET -2.542530 -6.985550 0.000000
				CHANNELS 3 Zrotation Yrotation Xrotation
				JOINT RightFoot
				{
					OFFSET -2.568260 -7.056230 0.000000
					CHANNELS 3 Zrotation Yrotation Xrotation
					JOINT RightToeBase
					{
						OFFSET -0.164730 -0.452590 2.363150
						CHANNELS 3 Zrotation Yrotation Xrotation
						End Site
						{
							OFFSET 0.000000 0.000000 0.000000
						}
					}
				}
			}
		}
	}
	JOINT LowerBack
	{
		OFFSET 0.000000 0.000000 0.000000
		CHANNELS 3 Zrotation Yrotation Xrotation
		JOINT Spine
		{
			OFFSET 0.028270 2.035590 -0.193380
			CHANNELS 3 Zrotation Yrotation Xrotation
			JOINT Spine1
			{
				OFFSET 0.056720 2.048850 -0.042750
				CHANNELS 3 Zrotation Yrotation Xrotation
				JOINT Neck
				{
					OFFSET 0.000000 0.000000 0.000000
					CHANNELS 3 Zrotation Yrotation Xrotation
					JOINT Neck1
					{
						OFFSET -0.054170 1.746240 0.172020
						CHANNELS 3 Zrotation Yrotation Xrotation
						JOINT Head
						{
							OFFSET 0.104070 1.761360 -0.123970
							CHANNELS 3 Zrotation Yrotation Xrotation
							End Site
							{
								OFFSET 0.000000 0.000000 0.000000
							}
						}
					}
				}
				JOINT LeftShoulder
				{
					OFFSET 0.000000 0.000000 0.000000
					CHANNELS 3 Zrotation Yrotation Xrotation
					JOINT LeftArm
					{
						OFFSET 3.362410 1.200890 -0.311210
						CHANNELS 3 Zrotation Yrotation Xrotation
						JOINT LeftForeArm
						{
							OFFSET 4.983000 -0.000000 -0.000000
							CHANNELS 3 Zrotation Yrotation Xrotation
							JOINT LeftHand
							{
								OFFSET 3.483560 -0.000000 -0.000000
								CHANNELS 3 Zrotation Yrotation Xrotation
								JOINT LeftFingerBase
								{
									OFFSET 0.000000 0.000000 0.000000
									CHANNELS 3 Zrotation Yrotation Xrotation
									JOINT LeftHandIndex1
									{
										OFFSET 0.715260 -0.000000 -0.000000
										CHANNELS 3 Zrotation Yrotation Xrotation
										End Site
										{
											OFFSET 0.000000 0.000000 0.000000
										}
									}
								}
								JOINT LThumb
								{
									OFFSET 0.000000 0.000000 0.000000
									CHANNELS 3 Zrotation Yrotation Xrotation
									End Site
									{
										OFFSET 0.000000 0.000000 0.000000
									}
								}
							}
						}
					}
				}
				JOINT RightShoulder
				{
					OFFSET 0.000000 0.000000 0.000000
					CHANNELS 3 Zrotation Yrotation Xrotation
					JOINT RightArm
					{
						OFFSET -3.136600 1.374050 -0.404650
						CHANNELS 3 Zrotation Yrotation Xrotation
						JOINT RightForeArm
						{
							OFFSET -5.241900 -0.000000 -0.000000
							CHANNELS 3 Zrotation Yrotation Xrotation
							JOINT RightHand
							{
								OFFSET -3.444170 -0.000000 -0.000000
								CHANNELS 3 Zrotation Yrotation Xrotation
								JOINT RightFingerBase
								{
									OFFSET 0.000000 0.000000 0.000000
									CHANNELS 3 Zrotation Yrotation Xrotation
									JOINT RightHandIndex1
									{
										OFFSET -0.622530 -0.000000 -0.000000
										CHANNELS 3 Zrotation Yrotation Xrotation
										End Site
										{
											OFFSET 0.000000 0.000000 0.000000
										}
									}
								}
								JOINT RThumb
								{
									OFFSET 0.000000 0.000000 0.000000
									CHANNELS 3 Zrotation Yrotation Xrotation
									End Site
									{
										OFFSET 0.000000 0.000000 0.000000
									}
								}
							}
						}
					}
				}
			}
		}
	}
}
MOTION
Frames: 6
Frame Time: 0.008333
-1.636758 18.351657 1.423781 -176.043045 68.766182 -147.126306 0.551857 -3.315894 -8.277038 1.223293 -24.768755 -28.421363 -0.899985 7.530028 16.250979 -3.081390 15.152921 9.739763 1.328900 -7.300000 -20.607300 -1.860585 1.864582 -7.351225 21.381198 3.384231 -32.541924 -0.081357 -9.903683 24.054985 5.205347 -18.800260 -4.328100 -0.377300 3.945000 -10.921900 -2.475577 4.574416 28.750750 -3.707795 5.153612 -53.219079 -0.593174 5.071111 -5.424866 -4.977066 3.702942 -14.761699 11.350798 3.995784 15.398100 4.028000 2.796200 5.131500 -2.233907 1.119706 3.945519 -62.571841 0.324945 55.970816 149.352684 -45.875328 -109.448252 -1.760291 0.083462 -9.763912 -32.739142 25.059175 -14.321200 -7.125000 0.000000 0.000000 -55.036800 47.362200 -4.587900 4.826628 0.376886 4.588544 60.762771 15.957845 72.250072 -139.423788 48.283866 -103.571987 0.111939 1.981237 -0.671337 7.415108 22.470370 2.562800 7.125000 0.000000 0.000000 22.471000 -10.449800 19.639800 
-1.534129 18.407665 1.372257 -176.394988 68.462946 -147.837396 0.258318 -3.236664 -8.258718 1.041602 -25.609908 -26.250603 -1.060027 6.801291 14.575106 -3.563292 16.368663 9.724893 1.297000 -7.215400 -20.355200 -1.551460 1.736018 -7.213076 20.994857 3.535185 -30.756412 0.188549 -9.361509 22.467197 5.501546 -19.592356 -4.381231 -0.354500 3.825200 -10.585400 -2.776641 4.585693 27.494751 -2.509915 5.679483 -53.987892 -0.952324 5.172167 -4.514177 -5.132192 3.649178 -14.670473 11.578459 3.909394 16.151891 4.148100 2.800200 5.434200 -2.255701 1.043179 3.993978 -62.369179 0.243312 56.111393 149.347836 -45.718000 -109.479320 -1.745423 0.105699 -9.933220 -32.492671 25.276308 -14.290900 -7.125000 0.000000 0.000000 -55.048100 47.530900 -4.903800 4.566355 0.727483 4.735030 60.905326 16.198181 72.153151 -139.323920 48.202838 -103.553298 0.104064 1.985380 -1.038621 7.189495 22.349929 2.466600 7.125000 0.000000 0.000000 22.347200 -10.562400 19.455400 
-1.433272 18.461170 1.315832 -177.237220 68.297426 -149.142270 -0.095351 -3.068194 -8.204466 0.580997 -26.569423 -24.051835 -1.200612 6.142344 13.071443 -4.081985 17.655865 9.591570 1.321600 -7.280700 -20.549700 -1.300261 1.616477 -7.082768 20.442363 3.589951 -28.840916 0.423997 -8.819127 20.942641 5.789658 -20.336583 -4.373996 -0.342300 3.759700 -10.401500 -2.872311 4.539892 26.262661 -2.027580 5.860772 -54.355117 -1.038134 5.195266 -3.722990 -5.447450 3.582768 -14.821330 11.990893 3.789387 16.859995 4.323500 2.794500 5.710100 -2.248533 0.949430 4.025382 -62.135130 0.141969 56.240261 149.360770 -45.609081 -109.494134 -1.712181 0.128078 -9.895601 -32.077123 25.474752 -14.168900 -7.125000 0.000000 0.000000 -54.946100 47.713700 -5.224200 4.467421 0.924985 4.814204 60.900969 16.615378 72.068954 -139.194185 48.182562 -103.506124 0.129828 1.970890 -1.019175 7.473663 22.286176 2.552200 7.125000 0.000000 0.000000 22.504600 -10.609500 19.594600 
-1.337839 18.510817 1.261388 -177.927956 68.041734 -150.435407 -0.407324 -2.874222 -8.125619 0.062089 -27.553474 -21.804495 -1.324830 5.501653 11.648132 -4.614450 18.937829 9.445712 1.359400 -7.380100 -20.846400 -1.000779 1.435986 -6.868699 19.884229 3.831172 -26.807709 0.654088 -8.264670 19.388070 6.107888 -21.161064 -4.568065 -0.282900 3.420800 -9.452600 -3.458928 4.557896 25.017793 -0.548962 6.515679 -54.481775 -1.347681 5.241090 -2.879313 -5.641372 3.509666 -14.833157 11.894916 3.761339 17.324773 4.345100 2.790100 5.889200 -2.417424 0.952706 4.030887 -61.980973 0.084747 56.323430 149.352348 -45.539158 -109.492964 -1.688712 0.154767 -9.803429 -31.882791 25.665539 -14.157500 -7.125000 0.000000 0.000000 -54.974900 47.856200 -5.491100 4.237980 1.176737 4.909047 60.653890 17.241850 71.987945 -139.052506 48.186283 -103.450154 0.179874 1.940661 -0.765792 8.143415 22.277249 2.776600 7.125000 0.000000 0.000000 22.871500 -10.592400 19.984800 
-1.254608 18.555665 1.217269 -178.576780 67.819334 -151.669978 -0.719368 -2.665167 -8.063357 -0.475092 -28.263346 -19.799489 -1.445086 4.948314 10.356060 -5.028292 19.973440 9.389694 1.301000 -7.226200 -20.387200 -0.806460 1.282950 -6.731120 19.413151 4.278952 -24.810560 0.844662 -7.752402 18.009029 6.455115 -22.045840 -5.004121 -0.210000 2.950400 -8.140700 -3.380807 4.487333 24.242019 -0.308359 6.598814 -54.774196 -1.416813 5.252576 -2.405573 -5.421382 3.470497 -14.727250 11.706026 3.697877 17.702937 4.301300 2.768200 6.041500 -2.393415 0.874495 4.045992 -61.586113 -0.006096 56.530004 149.298299 -45.493806 -109.471145 -1.679628 0.184692 -9.806427 -31.819424 25.984119 -14.271800 -7.125000 0.000000 0.000000 -55.191200 48.068100 -5.921300 4.140516 1.323132 4.967677 60.638901 17.681931 71.917878 -138.939879 48.171480 -103.413458 0.221553 1.909746 -0.540883 8.780277 22.142473 2.975300 7.125000 0.000000 0.000000 23.235100 -10.689800 20.315700 
-1.180973 18.586433 1.181495 -178.600370 67.319787 -152.494373 -0.908170 -2.498098 -7.943227 -1.016633 -28.462291 -17.974053 -1.549835 4.448331 9.234755 -5.222215 20.541519 9.937381 1.472600 -7.668300 -21.710900 -0.532179 1.047152 -6.460473 19.234356 4.791334 -22.891480 1.003007 -7.320776 16.825407 6.839241 -23.069453 -5.612618 -0.168700 2.646400 -7.295700 -4.153006 4.554501 23.663462 1.871249 7.647705 -54.857800 -2.080491 5.389432 -2.112691 -5.543838 3.324081 -14.520823 11.344038 3.621294 18.005424 4.237900 2.713600 6.165700 -2.605030 0.971510 4.023660 -61.436253 -0.077581 56.817117 149.194671 -45.483137 -109.431613 -1.673731 0.200631 -9.769428 -31.884608 26.104513 -14.363800 -7.125000 0.000000 0.000000 -55.331100 48.130000 -6.063100 3.774322 1.626185 5.072117 60.446390 17.971761 71.735875 -138.889020 48.139681 -103.411988 0.251883 1.867026 -0.535889 9.466474 21.733600 3.151400 7.125000 0.000000 0.000000 23.658000 -11.027400 20.582600 
